
<svg width="352px" height="80px" viewBox="0 0 352 80" version="1.1" xmlns="http://www.w3.org/2000/svg" xmlns:xlink="http://www.w3.org/1999/xlink">
    <!-- Generator: Sketch 49.3 (51167) - http://www.bohemiancoding.com/sketch -->
    <desc>Created with Sketch.</desc>
    <defs></defs>
    <g id="Page-1" stroke="none" stroke-width="1" fill="none" fill-rule="evenodd">
        <path d="M18.1352539,36.4160156 C18.1352539,35.3102158 17.9532896,34.3514038 17.5893555,33.5395508 C17.2254214,32.7276978 16.7495147,32.0628281 16.1616211,31.5449219 C15.5737275,31.0270156 14.9088579,30.6420911 14.1669922,30.3901367 C13.4251265,30.1381823 12.6832719,30.012207 11.9414062,30.012207 C10.9475862,30.012207 10.1077508,30.1171865 9.421875,30.3271484 C8.73599917,30.5371104 8.17960825,30.8240542 7.75268555,31.1879883 C7.32576284,31.5519224 7.01782321,31.982338 6.82885742,32.479248 C6.63989163,32.9761581 6.54541016,33.5115531 6.54541016,34.0854492 C6.54541016,34.7573276 6.66788615,35.4326952 6.9128418,36.1115723 C7.15779745,36.7904494 7.51822679,37.4518197 7.99414062,38.0957031 L7.91015625,38.3266602 C7.1123007,38.7185892 6.30745849,38.9145508 5.49560547,38.9145508 C5.01969163,38.9145508 4.57527876,38.8410652 4.16235352,38.6940918 C3.74942827,38.5471184 3.39249825,38.3336603 3.09155273,38.0537109 C2.79060722,37.7737616 2.55265387,37.4308289 2.37768555,37.0249023 C2.20271722,36.6189758 2.11523438,36.164065 2.11523438,35.6601562 C2.11523438,34.8343058 2.31469527,34.0574581 2.71362305,33.3295898 C3.11255082,32.6017216 3.64094723,31.936852 4.29882812,31.3349609 C4.95670902,30.7330699 5.71955946,30.1941756 6.58740234,29.7182617 C7.45524522,29.2423479 8.3510696,28.8399268 9.27490234,28.5109863 C10.1987351,28.1820459 11.1260533,27.9300953 12.0568848,27.755127 C12.9877162,27.5801586 13.8520468,27.4926758 14.6499023,27.4926758 C16.1196363,27.4926758 17.37589,27.6886374 18.4187012,28.0805664 C19.4615124,28.4724954 20.3083464,29.0428836 20.9592285,29.791748 C21.6101107,30.5406125 22.0860174,31.4469348 22.3869629,32.5107422 C22.6879084,33.5745496 22.8383789,34.7783136 22.8383789,36.1220703 C22.8383789,37.0459031 22.7998865,38.0607041 22.7229004,39.1665039 C22.6459143,40.2723037 22.5584315,41.4305766 22.4604492,42.6413574 C22.362467,43.8521382 22.2749841,45.1013933 22.197998,46.3891602 C22.121012,47.676927 22.0825195,48.9576759 22.0825195,50.2314453 C22.0825195,52.2470804 22.4569461,53.7622833 23.2058105,54.7770996 C23.954675,55.7919159 24.9379822,56.2993164 26.1557617,56.2993164 C27.2335666,56.2993164 28.4373306,55.9003946 29.7670898,55.1025391 L30.3759766,56.0053711 C29.4381464,56.9432013 28.4163467,57.6570614 27.3105469,58.1469727 C26.2047471,58.636884 25.0429748,58.8818359 23.8251953,58.8818359 C22.91536,58.8818359 22.0755247,58.7278661 21.3056641,58.4199219 C20.5358034,58.1119776 19.8709338,57.6535675 19.3110352,57.0446777 C18.7511365,56.435788 18.3172216,55.6694382 18.0092773,54.7456055 C17.7013331,53.8217727 17.5473633,52.7509827 17.5473633,51.5332031 C17.5473633,51.169269 17.5578612,50.8053404 17.5788574,50.4414062 C17.5998536,50.0774721 17.6453447,49.6925476 17.715332,49.2866211 L17.5893555,49.2866211 C16.9874644,50.4904032 16.291101,51.6766706 15.5002441,52.845459 C14.7093873,54.0142474 13.8415575,55.0570429 12.8967285,55.973877 C11.9518996,56.890711 10.9440972,57.6325655 9.87329102,58.1994629 C8.80248488,58.7663603 7.6792051,59.0498047 6.50341797,59.0498047 C5.53759283,59.0498047 4.65576571,58.8818376 3.85791016,58.5458984 C3.0600546,58.2099593 2.37768838,57.7480498 1.81079102,57.1601562 C1.24389365,56.5722627 0.80298009,55.8758992 0.488037109,55.0710449 C0.173094128,54.2661906 0.015625,53.3878628 0.015625,52.4360352 C0.015625,51.2042582 0.243080408,50.0844777 0.697998047,49.0766602 C1.15291569,48.0688426 1.7827922,47.1660196 2.58764648,46.3681641 C3.39250077,45.5703085 4.35481211,44.8809437 5.47460938,44.3000488 C6.59440664,43.719154 7.8121679,43.2362487 9.12792969,42.8513184 C10.4436915,42.466388 11.8364184,42.1794443 13.3061523,41.9904785 C14.7758863,41.8015127 16.2735926,41.7070312 17.7993164,41.7070312 C17.8972987,40.8251909 17.9777829,39.9713583 18.0407715,39.1455078 C18.1037601,38.3196573 18.1352539,37.4098357 18.1352539,36.4160156 Z M5.24365234,50.840332 C5.24365234,51.3862332 5.30314068,51.907631 5.42211914,52.404541 C5.5410976,52.9014511 5.73006055,53.3388653 5.98901367,53.7167969 C6.24796679,54.0947285 6.5769023,54.3921701 6.97583008,54.6091309 C7.37475785,54.8260916 7.85416387,54.9345703 8.4140625,54.9345703 C9.04394846,54.9345703 9.69482086,54.7875991 10.3666992,54.4936523 C11.0385776,54.1997056 11.6999479,53.7937851 12.3508301,53.2758789 C13.0017122,52.7579727 13.6245901,52.1385941 14.2194824,51.4177246 C14.8143747,50.6968551 15.3497698,49.9095095 15.8256836,49.0556641 C16.3015974,48.2018186 16.6970199,47.302495 17.0119629,46.357666 C17.3269059,45.4128371 17.5333654,44.4435271 17.6313477,43.449707 C16.5955352,43.477702 15.5667369,43.5441889 14.5449219,43.6491699 C13.5231069,43.7541509 12.5537969,43.9186187 11.6369629,44.1425781 C10.7201289,44.3665376 9.86979559,44.66048 9.0859375,45.0244141 C8.30207941,45.3883482 7.62671182,45.8397597 7.05981445,46.3786621 C6.49291709,46.9175645 6.04850421,47.5544397 5.7265625,48.2893066 C5.40462079,49.0241736 5.24365234,49.8745069 5.24365234,50.840332 Z M71.1083984,8.6171875 C72.9980563,8.6171875 74.7372154,8.77815594 76.3259277,9.10009766 C77.9146401,9.42203937 79.2828719,9.82446048 80.4306641,10.307373 C81.5784563,10.7902856 82.4742806,11.3046848 83.1181641,11.8505859 C83.7620475,12.3964871 84.0839844,12.9003883 84.0839844,13.3623047 C84.0839844,14.3281298 84.0454919,15.5808842 83.9685059,17.1206055 C83.8915198,18.6603267 83.7970383,20.5219617 83.6850586,22.7055664 L81.8583984,22.6635742 C81.8723959,22.4676097 81.8828938,22.2786467 81.8898926,22.0966797 C81.8968913,21.9147126 81.9003906,21.7257497 81.9003906,21.5297852 C81.8863932,20.56396 81.7814137,19.6366418 81.5854492,18.7478027 C81.3894847,17.8589637 81.0185574,17.0296262 80.4726562,16.2597656 C79.8987602,15.4619101 79.2163939,14.7620473 78.4255371,14.1601562 C77.6346803,13.5582652 76.7668504,13.0508647 75.8220215,12.6379395 C74.8771925,12.2250142 73.8658908,11.9170746 72.7880859,11.7141113 C71.7102811,11.5111481 70.6044979,11.409668 69.4707031,11.409668 C67.5110579,11.409668 65.7334064,11.7071097 64.1376953,12.302002 C62.5419842,12.8968943 61.1142641,13.7227323 59.8544922,14.779541 C58.5947203,15.8363497 57.5029343,17.0821055 56.5791016,18.5168457 C55.6552688,19.9515859 54.8889191,21.51228 54.2800293,23.1989746 C53.6711395,24.8856692 53.219728,26.6598214 52.9257812,28.5214844 C52.6318345,30.3831473 52.4848633,32.2587796 52.4848633,34.1484375 C52.4848633,36.7659636 52.7018207,39.1349992 53.1357422,41.2556152 C53.5696636,43.3762313 54.1785443,45.2623615 54.9624023,46.9140625 C55.7462604,48.5657635 56.6805773,49.9899843 57.7653809,51.1867676 C58.8501845,52.3835509 60.0469498,53.3703574 61.3557129,54.1472168 C62.6644759,54.9240761 64.0642015,55.4979636 65.5549316,55.8688965 C67.0456618,56.2398293 68.5818606,56.425293 70.1635742,56.425293 C71.4233461,56.425293 72.4871376,56.3378101 73.3549805,56.1628418 C74.2228233,55.9878735 74.9296848,55.7499201 75.4755859,55.4489746 C76.0214871,55.1480291 76.4309068,54.7910991 76.7038574,54.3781738 C76.976808,53.9652486 77.1412758,53.5278343 77.1972656,53.065918 C77.3092454,52.22607 77.3827309,51.2987518 77.4177246,50.2839355 C77.4527183,49.2691193 77.4702148,48.2718148 77.4702148,47.2919922 L77.4702148,45.4023438 C77.4702148,44.3665313 77.3967293,43.5581898 77.2497559,42.9772949 C77.1027825,42.3964001 76.8368346,41.9624852 76.4519043,41.6755371 C76.066974,41.3885891 75.531579,41.2136234 74.8457031,41.1506348 C74.1598273,41.0876462 73.2780002,41.0561523 72.2001953,41.0561523 L71.1713867,41.0561523 C70.9894197,41.0561523 70.7794608,41.0596517 70.5415039,41.0666504 C70.303547,41.0736491 70.0096046,41.0771484 69.659668,41.0771484 L69.5126953,39.0195312 C69.7366548,39.0335287 69.939615,39.0405273 70.121582,39.0405273 L71.5073242,39.0405273 C72.431157,39.0405273 73.4109649,39.0335287 74.4467773,39.0195312 C75.4825898,39.0055338 76.4518998,38.9880372 77.3547363,38.967041 C78.2575729,38.9460448 79.0379199,38.9285482 79.6958008,38.9145508 C80.3536817,38.9005533 80.7666007,38.8935547 80.9345703,38.8935547 C81.6904335,38.8935547 82.2328271,39.0825176 82.5617676,39.4604492 C82.890708,39.8383808 83.0551758,40.4892532 83.0551758,41.4130859 C83.0551758,41.986982 83.0376792,42.7078407 83.0026855,43.5756836 C82.9676919,44.4435265 82.9291994,45.4128364 82.887207,46.4836426 C82.8452146,47.5544487 82.7962242,48.705723 82.7402344,49.9375 C82.6842445,51.169277 82.6352541,52.42903 82.5932617,53.7167969 C82.5792643,54.2207056 82.5442711,54.6441226 82.4882812,54.9870605 C82.4322914,55.3299985 82.3378099,55.6204415 82.204834,55.8583984 C82.0718581,56.0963554 81.893393,56.3028149 81.6694336,56.4777832 C81.4454741,56.6527515 81.1585304,56.8242179 80.8085938,56.9921875 C80.4026672,57.2021495 79.8287798,57.4296049 79.0869141,57.6745605 C78.3450484,57.9195162 77.4807178,58.1504709 76.4938965,58.3674316 C75.5070751,58.5843924 74.4257871,58.7628574 73.25,58.902832 C72.0742129,59.0428067 70.849453,59.112793 69.5756836,59.112793 C67.8399978,59.112793 66.0658457,58.9658218 64.2531738,58.671875 C62.440502,58.3779282 60.6803471,57.8810256 58.9726562,57.1811523 C57.2649654,56.4812791 55.6517817,55.5539609 54.1330566,54.3991699 C52.6143316,53.244379 51.2915909,51.8026616 50.1647949,50.0739746 C49.0379989,48.3452876 48.1456739,46.3086869 47.487793,43.9641113 C46.8299121,41.6195358 46.5009766,38.9075675 46.5009766,35.828125 C46.5009766,33.6445203 46.728432,31.4539498 47.1833496,29.2563477 C47.6382672,27.0587455 48.3206335,24.9521585 49.2304688,22.9365234 C50.140304,20.9208884 51.2775811,19.0417568 52.642334,17.2990723 C54.0070869,15.5563878 55.5992748,14.0411848 57.4189453,12.753418 C59.2386159,11.4656511 61.2892139,10.4543494 63.5708008,9.71948242 C65.8523877,8.98461547 68.3648951,8.6171875 71.1083984,8.6171875 Z M92.6293945,58.5458984 L92.293457,58.5249023 C92.4054368,57.1951431 92.5104162,55.7464271 92.6083984,54.1787109 C92.7063807,52.6109948 92.7973629,51.0188069 92.8813477,49.4020996 C92.9653325,47.7853923 93.038818,46.1827065 93.1018066,44.5939941 C93.1647952,43.0052818 93.2207843,41.5215726 93.2697754,40.1428223 C93.3187665,38.7640719 93.3537597,37.5288141 93.3747559,36.4370117 C93.3957521,35.3452094 93.40625,34.4843781 93.40625,33.8544922 C93.40625,33.336586 93.3852541,32.8886738 93.3432617,32.5107422 C93.3012693,32.1328106 93.2067878,31.8178724 93.0598145,31.565918 C92.9128411,31.3139636 92.6993829,31.1284999 92.4194336,31.0095215 C92.1394843,30.890543 91.7615584,30.8310547 91.2856445,30.8310547 C91.0476876,30.8310547 90.8027356,30.8450519 90.5507812,30.8730469 C90.2988269,30.9010418 90.0188817,30.9430336 89.7109375,30.9990234 C89.4029933,31.0550133 89.0565612,31.1284989 88.6716309,31.2194824 C88.2867005,31.3104659 87.8422877,31.4189447 87.3383789,31.5449219 L87.0234375,30.0332031 C89.3470168,29.1933552 91.2296477,28.6019711 92.6713867,28.2590332 C94.1131257,27.9160953 95.085935,27.7446289 95.5898438,27.7446289 C96.5136765,27.7446289 97.1750468,28.0140761 97.5739746,28.5529785 C97.9729024,29.0918809 98.1723633,29.8932238 98.1723633,30.9570312 C98.1723633,31.0550135 98.158366,31.3419573 98.1303711,31.8178711 C98.1023762,32.2937849 98.0638837,32.9131635 98.0148926,33.6760254 C97.9659014,34.4388873 97.9064131,35.3242137 97.8364258,36.3320312 C97.7664385,37.3398488 97.6859542,38.4211368 97.5949707,39.5759277 C97.5039872,40.7307187 97.4025071,41.9344827 97.2905273,43.1872559 C97.1785476,44.4400291 97.0595709,45.6892841 96.9335938,46.9350586 L97.1435547,46.9560547 C97.815433,44.2125514 98.5747842,41.6545529 99.4216309,39.2819824 C100.268478,36.909412 101.220291,34.848316 102.2771,33.0986328 C103.333908,31.3489496 104.495681,29.9737192 105.762451,28.9729004 C107.029222,27.9720816 108.418449,27.4716797 109.930176,27.4716797 C110.462079,27.4716797 110.958982,27.5556632 111.420898,27.7236328 C111.882815,27.8916024 112.281737,28.1260564 112.617676,28.427002 C112.953615,28.7279475 113.219563,29.0848775 113.415527,29.4978027 C113.611492,29.910728 113.709473,30.3621395 113.709473,30.8520508 C113.709473,31.4819367 113.572999,32.0873181 113.300049,32.6682129 C113.027098,33.2491077 112.596683,33.7635069 112.008789,34.2114258 L111.84082,34.2114258 C111.252927,33.7215145 110.696536,33.3680838 110.171631,33.151123 C109.646726,32.9341623 109.090335,32.8256836 108.502441,32.8256836 C107.872555,32.8256836 107.263675,32.9446603 106.675781,33.1826172 C106.087888,33.4205741 105.548993,33.7635069 105.059082,34.2114258 C104.261226,34.939294 103.519372,35.9016053 102.833496,37.0983887 C102.14762,38.295172 101.521243,39.621412 100.954346,41.0771484 C100.387448,42.5328849 99.8765485,44.0620851 99.4216309,45.6647949 C98.9667132,47.2675048 98.5747901,48.8281988 98.2458496,50.3469238 C97.9169092,51.8656489 97.6509613,53.293369 97.447998,54.630127 C97.2450348,55.9668849 97.1015629,57.0901647 97.0175781,58 L92.6293945,58.5458984 Z M131.325195,36.4160156 C131.325195,35.3102158 131.143231,34.3514038 130.779297,33.5395508 C130.415363,32.7276978 129.939456,32.0628281 129.351562,31.5449219 C128.763669,31.0270156 128.098799,30.6420911 127.356934,30.3901367 C126.615068,30.1381823 125.873213,30.012207 125.131348,30.012207 C124.137528,30.012207 123.297692,30.1171865 122.611816,30.3271484 C121.925941,30.5371104 121.36955,30.8240542 120.942627,31.1879883 C120.515704,31.5519224 120.207765,31.982338 120.018799,32.479248 C119.829833,32.9761581 119.735352,33.5115531 119.735352,34.0854492 C119.735352,34.7573276 119.857828,35.4326952 120.102783,36.1115723 C120.347739,36.7904494 120.708168,37.4518197 121.184082,38.0957031 L121.100098,38.3266602 C120.302242,38.7185892 119.4974,38.9145508 118.685547,38.9145508 C118.209633,38.9145508 117.76522,38.8410652 117.352295,38.6940918 C116.93937,38.5471184 116.58244,38.3336603 116.281494,38.0537109 C115.980549,37.7737616 115.742595,37.4308289 115.567627,37.0249023 C115.392659,36.6189758 115.305176,36.164065 115.305176,35.6601562 C115.305176,34.8343058 115.504637,34.0574581 115.903564,33.3295898 C116.302492,32.6017216 116.830889,31.936852 117.48877,31.3349609 C118.14665,30.7330699 118.909501,30.1941756 119.777344,29.7182617 C120.645187,29.2423479 121.541011,28.8399268 122.464844,28.5109863 C123.388676,28.1820459 124.315995,27.9300953 125.246826,27.755127 C126.177658,27.5801586 127.041988,27.4926758 127.839844,27.4926758 C129.309578,27.4926758 130.565831,27.6886374 131.608643,28.0805664 C132.651454,28.4724954 133.498288,29.0428836 134.14917,29.791748 C134.800052,30.5406125 135.275959,31.4469348 135.576904,32.5107422 C135.87785,33.5745496 136.02832,34.7783136 136.02832,36.1220703 C136.02832,37.0459031 135.989828,38.0607041 135.912842,39.1665039 C135.835856,40.2723037 135.748373,41.4305766 135.650391,42.6413574 C135.552408,43.8521382 135.464926,45.1013933 135.387939,46.3891602 C135.310953,47.676927 135.272461,48.9576759 135.272461,50.2314453 C135.272461,52.2470804 135.646888,53.7622833 136.395752,54.7770996 C137.144616,55.7919159 138.127924,56.2993164 139.345703,56.2993164 C140.423508,56.2993164 141.627272,55.9003946 142.957031,55.1025391 L143.565918,56.0053711 C142.628088,56.9432013 141.606288,57.6570614 140.500488,58.1469727 C139.394688,58.636884 138.232916,58.8818359 137.015137,58.8818359 C136.105301,58.8818359 135.265466,58.7278661 134.495605,58.4199219 C133.725745,58.1119776 133.060875,57.6535675 132.500977,57.0446777 C131.941078,56.435788 131.507163,55.6694382 131.199219,54.7456055 C130.891275,53.8217727 130.737305,52.7509827 130.737305,51.5332031 C130.737305,51.169269 130.747803,50.8053404 130.768799,50.4414062 C130.789795,50.0774721 130.835286,49.6925476 130.905273,49.2866211 L130.779297,49.2866211 C130.177406,50.4904032 129.481042,51.6766706 128.690186,52.845459 C127.899329,54.0142474 127.031499,55.0570429 126.08667,55.973877 C125.141841,56.890711 124.134039,57.6325655 123.063232,58.1994629 C121.992426,58.7663603 120.869147,59.0498047 119.693359,59.0498047 C118.727534,59.0498047 117.845707,58.8818376 117.047852,58.5458984 C116.249996,58.2099593 115.56763,57.7480498 115.000732,57.1601562 C114.433835,56.5722627 113.992921,55.8758992 113.677979,55.0710449 C113.363036,54.2661906 113.205566,53.3878628 113.205566,52.4360352 C113.205566,51.2042582 113.433022,50.0844777 113.887939,49.0766602 C114.342857,48.0688426 114.972734,47.1660196 115.777588,46.3681641 C116.582442,45.5703085 117.544754,44.8809437 118.664551,44.3000488 C119.784348,43.719154 121.002109,43.2362487 122.317871,42.8513184 C123.633633,42.466388 125.02636,42.1794443 126.496094,41.9904785 C127.965828,41.8015127 129.463534,41.7070312 130.989258,41.7070312 C131.08724,40.8251909 131.167724,39.9713583 131.230713,39.1455078 C131.293701,38.3196573 131.325195,37.4098357 131.325195,36.4160156 Z M118.433594,50.840332 C118.433594,51.3862332 118.493082,51.907631 118.612061,52.404541 C118.731039,52.9014511 118.920002,53.3388653 119.178955,53.7167969 C119.437908,54.0947285 119.766844,54.3921701 120.165771,54.6091309 C120.564699,54.8260916 121.044105,54.9345703 121.604004,54.9345703 C122.23389,54.9345703 122.884762,54.7875991 123.556641,54.4936523 C124.228519,54.1997056 124.889889,53.7937851 125.540771,53.2758789 C126.191654,52.7579727 126.814532,52.1385941 127.409424,51.4177246 C128.004316,50.6968551 128.539711,49.9095095 129.015625,49.0556641 C129.491539,48.2018186 129.886961,47.302495 130.201904,46.357666 C130.516847,45.4128371 130.723307,44.4435271 130.821289,43.449707 C129.785477,43.477702 128.756678,43.5441889 127.734863,43.6491699 C126.713048,43.7541509 125.743738,43.9186187 124.826904,44.1425781 C123.91007,44.3665376 123.059737,44.66048 122.275879,45.0244141 C121.492021,45.3883482 120.816653,45.8397597 120.249756,46.3786621 C119.682858,46.9175645 119.238446,47.5544397 118.916504,48.2893066 C118.594562,49.0241736 118.433594,49.8745069 118.433594,50.840332 Z M154.924805,1.64648438 C154.658853,3.88607891 154.392905,6.19562612 154.126953,8.57519531 C153.861001,10.9547645 153.605551,13.3622925 153.360596,15.7978516 C153.11564,18.2334106 152.877687,20.6829304 152.646729,23.1464844 C152.41577,25.6100384 152.205811,28.0420616 152.016846,30.442627 C151.82788,32.8431923 151.663412,35.1947313 151.523438,37.4973145 C151.383463,39.7998976 151.271485,42.0079647 151.1875,44.121582 L151.418457,44.1425781 C152.524257,41.4270698 153.714024,39.033539 154.987793,36.9619141 C156.261562,34.8902891 157.556309,33.1546294 158.87207,31.7548828 C160.187832,30.3551362 161.493076,29.2983434 162.787842,28.5844727 C164.082607,27.8706019 165.303868,27.5136719 166.45166,27.5136719 C167.417485,27.5136719 168.271318,27.6921369 169.013184,28.0490723 C169.755049,28.4060076 170.398923,28.8819143 170.944824,29.4768066 C171.490725,30.0716989 171.945636,30.7575645 172.30957,31.5344238 C172.673504,32.3112832 172.967447,33.123124 173.191406,33.9699707 C173.415366,34.8168174 173.572835,35.6741493 173.663818,36.5419922 C173.754802,37.4098351 173.800293,38.2216759 173.800293,38.9775391 C173.800293,41.0631615 173.593833,43.0122793 173.180908,44.8249512 C172.767983,46.637623 172.197595,48.2892992 171.469727,49.7800293 C170.741858,51.2707594 169.881027,52.5969994 168.887207,53.7587891 C167.893387,54.9205787 166.815598,55.9003866 165.653809,56.6982422 C164.492019,57.4960977 163.267259,58.1014791 161.979492,58.5144043 C160.691725,58.9273295 159.396979,59.1337891 158.095215,59.1337891 C157.227372,59.1337891 156.356043,59.0358083 155.481201,58.8398438 C154.60636,58.6438792 153.752527,58.3429382 152.919678,57.9370117 C152.086829,57.5310852 151.299483,57.0096874 150.557617,56.3728027 C149.815751,55.735918 149.150882,54.9835655 148.562988,54.1157227 C148.073077,55.3474996 147.576174,56.3553021 147.072266,57.1391602 C146.568357,57.9230182 146.099449,58.5528948 145.665527,59.0288086 L144.57373,58.7558594 C145.343591,56.6142471 145.91048,54.0422513 146.274414,51.0397949 C146.638348,48.0373385 146.918293,44.6395046 147.114258,40.8461914 C147.184245,39.2224854 147.271728,37.3748476 147.376709,35.3032227 C147.48169,33.2315977 147.590169,31.0480258 147.702148,28.7524414 C147.814128,26.456857 147.933105,24.1088173 148.059082,21.708252 C148.185059,19.3076866 148.311035,16.9736442 148.437012,14.7060547 C148.562989,12.4384652 148.681966,10.2898865 148.793945,8.26025391 C148.905925,6.23062136 149.010904,4.43197398 149.108887,2.86425781 C149.122884,2.52831863 149.227864,2.23787557 149.423828,1.99291992 C149.619793,1.74796427 149.864745,1.55200269 150.158691,1.4050293 C150.452638,1.25805591 150.785073,1.14957717 151.156006,1.07958984 C151.526939,1.00960251 151.894367,0.974609375 152.258301,0.974609375 C153.112146,0.974609375 154.000972,1.19856547 154.924805,1.64648438 Z M168.677246,41.0141602 C168.677246,40.0623325 168.603761,39.0825246 168.456787,38.074707 C168.309814,37.0668895 168.078859,36.1535685 167.763916,35.3347168 C167.448973,34.515865 167.036054,33.8439968 166.525146,33.3190918 C166.014239,32.7941868 165.39486,32.5317383 164.666992,32.5317383 C163.813147,32.5317383 162.969812,32.7451964 162.136963,33.1721191 C161.304114,33.5990418 160.499271,34.1729293 159.722412,34.8937988 C158.945553,35.6146683 158.200199,36.447505 157.486328,37.392334 C156.772457,38.3371629 156.104088,39.3274688 155.481201,40.3632812 C154.858314,41.3990937 154.298424,42.4453886 153.801514,43.5021973 C153.304604,44.5590059 152.877687,45.563309 152.520752,46.5151367 C152.163817,47.4669644 151.887371,48.3312949 151.691406,49.1081543 C151.495442,49.8850136 151.397461,50.5043922 151.397461,50.9663086 C151.607423,51.8341515 151.932859,52.6214971 152.373779,53.3283691 C152.814699,54.0352412 153.346595,54.6371232 153.969482,55.1340332 C154.59237,55.6309432 155.285234,56.0123685 156.048096,56.2783203 C156.810958,56.5442722 157.619299,56.6772461 158.473145,56.6772461 C159.872891,56.6772461 161.192132,56.3238154 162.430908,55.6169434 C163.669684,54.9100713 164.750972,53.8847723 165.674805,52.5410156 C166.598637,51.1972589 167.329994,49.5560807 167.868896,47.6174316 C168.407799,45.6787826 168.677246,43.4777141 168.677246,41.0141602 Z M193.70459,45.9272461 C193.70459,44.513502 193.851561,43.0787833 194.145508,41.6230469 C194.439455,40.1673104 194.87337,38.7570869 195.447266,37.392334 C196.021162,36.0275811 196.731522,34.7468322 197.578369,33.5500488 C198.425216,32.3532655 199.401524,31.3069706 200.507324,30.4111328 C201.613124,29.515295 202.844883,28.8084336 204.202637,28.2905273 C205.560391,27.7726211 207.037101,27.5136719 208.632812,27.5136719 C210.424488,27.5136719 212.009677,27.8915978 213.388428,28.6474609 C214.767178,29.4033241 215.925451,30.4006286 216.863281,31.6394043 C217.801111,32.87818 218.511472,34.2884035 218.994385,35.8701172 C219.477297,37.4518308 219.71875,39.0685139 219.71875,40.7202148 C219.71875,42.1339589 219.571779,43.5686776 219.277832,45.0244141 C218.983885,46.4801505 218.546471,47.890374 217.965576,49.255127 C217.384681,50.6198799 216.670821,51.9006288 215.823975,53.0974121 C214.977128,54.2941954 214.000819,55.3404903 212.89502,56.2363281 C211.78922,57.1321659 210.557461,57.8390274 209.199707,58.3569336 C207.841953,58.8748398 206.365242,59.1337891 204.769531,59.1337891 C202.977856,59.1337891 201.392666,58.7558632 200.013916,58 C198.635166,57.2441368 197.480392,56.2468324 196.549561,55.0080566 C195.618729,53.7692809 194.911868,52.3590574 194.428955,50.7773438 C193.946043,49.1956301 193.70459,47.5789471 193.70459,45.9272461 Z M198.722656,43.9326172 C198.722656,44.8844449 198.796142,45.8502555 198.943115,46.8300781 C199.090089,47.8099007 199.317544,48.7547155 199.625488,49.6645508 C199.933433,50.5743861 200.314858,51.4247194 200.769775,52.2155762 C201.224693,53.006433 201.763587,53.6957978 202.386475,54.2836914 C203.009362,54.871585 203.709225,55.3334944 204.486084,55.6694336 C205.262943,56.0053728 206.120275,56.1733398 207.058105,56.1733398 C208.07992,56.1733398 208.979244,55.9528831 209.756104,55.5119629 C210.532963,55.0710427 211.204831,54.4866573 211.771729,53.7587891 C212.338626,53.0309208 212.807534,52.1980841 213.178467,51.2602539 C213.5494,50.3224237 213.846841,49.3531137 214.070801,48.3522949 C214.29476,47.3514761 214.452229,46.3611703 214.543213,45.3813477 C214.634196,44.401525 214.679688,43.498702 214.679688,42.6728516 C214.679688,41.7070264 214.606202,40.7377165 214.459229,39.7648926 C214.312255,38.7920687 214.0848,37.8542526 213.776855,36.951416 C213.468911,36.0485795 213.087486,35.2017455 212.632568,34.4108887 C212.177651,33.6200319 211.638756,32.9341663 211.015869,32.3532715 C210.392982,31.7723767 209.693119,31.3139665 208.91626,30.9780273 C208.1394,30.6420882 207.282068,30.4741211 206.344238,30.4741211 C205.322423,30.4741211 204.4231,30.6910786 203.64624,31.125 C202.869381,31.5589214 202.197513,32.1398076 201.630615,32.8676758 C201.063718,33.595544 200.59481,34.4283807 200.223877,35.3662109 C199.852944,36.3040411 199.555502,37.2698518 199.331543,38.2636719 C199.107584,39.2574919 198.950114,40.2477978 198.859131,41.2346191 C198.768147,42.2214405 198.722656,43.1207642 198.722656,43.9326172 Z M233.618164,29.1933594 C234.318037,29.2213543 234.993405,29.2423502 235.644287,29.2563477 C236.295169,29.2703451 236.90405,29.2808431 237.470947,29.2878418 C238.037845,29.2948405 238.548744,29.3018392 239.003662,29.3088379 C239.45858,29.3158366 239.847004,29.3193359 240.168945,29.3193359 C240.812829,29.3193359 241.421709,29.2983401 241.995605,29.2563477 C242.569502,29.2143553 243.059406,29.1723635 243.465332,29.1303711 C243.619304,29.6622748 243.696289,30.0821925 243.696289,30.3901367 C243.696289,31.0060252 243.440839,31.4119456 242.929932,31.6079102 C242.419024,31.8038747 241.680669,31.9018555 240.714844,31.9018555 C239.749019,31.9018555 238.67123,31.8493658 237.481445,31.7443848 C236.291661,31.6394038 234.982917,31.5379237 233.555176,31.4399414 C233.499186,33.1056398 233.4292,34.9182845 233.345215,36.8779297 C233.26123,38.8375749 233.152751,40.867177 233.019775,42.9667969 C232.886799,45.0664167 232.722332,47.197499 232.526367,49.3601074 C232.330403,51.5227159 232.08895,53.6328022 231.802002,55.6904297 C231.515054,57.7480572 231.17562,59.7111723 230.783691,61.579834 C230.391762,63.4484957 229.936852,65.1456629 229.418945,66.6713867 C228.593095,69.0649534 227.662277,71.0630616 226.626465,72.6657715 C225.590652,74.2684813 224.488368,75.5562289 223.31958,76.5290527 C222.150792,77.5018766 220.940029,78.1947408 219.687256,78.607666 C218.434483,79.0205913 217.185228,79.2270508 215.939453,79.2270508 C214.861648,79.2270508 213.864344,79.1080741 212.94751,78.8701172 C212.030676,78.6321603 211.236331,78.3102234 210.564453,77.9042969 C209.892575,77.4983704 209.364178,77.025963 208.979248,76.4870605 C208.594318,75.9481581 208.401855,75.3777699 208.401855,74.7758789 C208.401855,74.4399397 208.47884,74.1075049 208.632812,73.7785645 C208.786785,73.449624 209.000243,73.1591809 209.273193,72.9072266 C209.546144,72.6552722 209.868081,72.4488127 210.239014,72.2878418 C210.609947,72.1268709 211.012368,72.0463867 211.446289,72.0463867 C211.852216,72.7742549 212.300128,73.3936335 212.790039,73.904541 C213.27995,74.4154485 213.804847,74.8353662 214.364746,75.1643066 C214.924645,75.4932471 215.505531,75.7346998 216.107422,75.8886719 C216.709313,76.042644 217.318194,76.1196289 217.934082,76.1196289 C219.543791,76.1196289 220.912022,75.5982311 222.038818,74.5554199 C223.165614,73.5126087 224.110429,72.0358982 224.873291,70.1252441 C225.636153,68.2145901 226.234536,65.9085422 226.668457,63.2070312 C227.102378,60.5055203 227.434813,57.4996097 227.665771,54.189209 C227.89673,50.8788083 228.050699,47.3025094 228.127686,43.4602051 C228.204672,39.6179007 228.257161,35.5901903 228.285156,31.3769531 C226.969394,31.3909506 225.751633,31.439941 224.631836,31.5239258 C223.512039,31.6079106 222.574223,31.7898749 221.818359,32.0698242 C221.76237,31.943847 221.734375,31.8108731 221.734375,31.6708984 C221.734375,31.3349593 221.895343,31.0235203 222.217285,30.7365723 C222.539227,30.4496242 222.990638,30.1941743 223.571533,29.9702148 C224.152428,29.7462554 224.852291,29.5642911 225.671143,29.4243164 C226.489994,29.2843417 227.396317,29.1933596 228.390137,29.1513672 C228.446127,27.8356054 228.516113,26.5793517 228.600098,25.3825684 C228.684082,24.185785 228.792561,23.0030169 228.925537,21.8342285 C229.058513,20.6654401 229.222981,19.4931699 229.418945,18.3173828 C229.61491,17.1415957 229.859862,15.9238344 230.153809,14.6640625 C230.53174,13.026359 231.021644,11.5531478 231.623535,10.2443848 C232.225426,8.93562171 232.907792,7.77384948 233.670654,6.7590332 C234.433516,5.74421693 235.259354,4.87288775 236.148193,4.14501953 C237.037032,3.41715131 237.950353,2.81876862 238.888184,2.34985352 C239.826014,1.88093841 240.777827,1.53800564 241.743652,1.32104492 C242.709477,1.1040842 243.654292,0.995605469 244.578125,0.995605469 C245.935879,0.995605469 247.143143,1.17407048 248.199951,1.53100586 C249.25676,1.88794124 250.152584,2.35684931 250.887451,2.93774414 C251.622318,3.51863897 252.182208,4.17301068 252.567139,4.90087891 C252.952069,5.62874713 253.144531,6.37060169 253.144531,7.12646484 C253.144531,7.71435841 253.05005,8.2392555 252.861084,8.70117188 C252.672118,9.16308825 252.413169,9.5515121 252.084229,9.86645508 C251.755288,10.1813981 251.373863,10.4228507 250.939941,10.5908203 C250.50602,10.7587899 250.044111,10.8427734 249.554199,10.8427734 C248.910316,10.8427734 248.231449,10.681805 247.517578,10.3598633 L247.433594,10.1289062 C247.699546,9.51301775 247.899006,8.9741234 248.031982,8.51220703 C248.164958,8.05029066 248.231445,7.57438396 248.231445,7.08447266 C248.231445,6.4125943 248.094972,5.83520749 247.822021,5.35229492 C247.549071,4.86938235 247.192141,4.47395987 246.751221,4.16601562 C246.310301,3.85807138 245.820397,3.63411528 245.281494,3.49414063 C244.742592,3.35416597 244.207197,3.28417969 243.675293,3.28417969 C242.107577,3.28417969 240.781337,3.63411108 239.696533,4.33398438 C238.61173,5.03385767 237.708907,5.99616901 236.988037,7.22094727 C236.267168,8.44572552 235.696779,9.88744288 235.276855,11.5461426 C234.856931,13.2048423 234.538494,14.9929917 234.321533,16.9106445 C234.104572,18.8282973 233.950603,20.8334043 233.859619,22.9260254 C233.768636,25.0186465 233.688151,27.107737 233.618164,29.1933594 Z M262.970703,45.6542969 C262.928711,45.9902361 262.900716,46.3121729 262.886719,46.6201172 C262.872721,46.9280614 262.865723,47.2360011 262.865723,47.5439453 C262.865723,49.1396564 263.079181,50.4938909 263.506104,51.6066895 C263.933026,52.719488 264.541907,53.6258103 265.332764,54.3256836 C266.12362,55.0255569 267.075434,55.5329574 268.188232,55.8479004 C269.301031,56.1628434 270.550286,56.3203125 271.936035,56.3203125 C273.321784,56.3203125 274.637526,56.1278502 275.883301,55.7429199 C277.129075,55.3579896 278.224361,54.7806028 279.169189,54.0107422 C280.114018,53.2408816 280.866371,52.2855689 281.42627,51.1447754 C281.986168,50.0039819 282.266113,48.6847406 282.266113,47.1870117 C282.266113,46.235184 282.136639,45.3638549 281.877686,44.572998 C281.618732,43.7821412 281.261802,43.0542839 280.806885,42.3894043 C280.351967,41.7245247 279.813073,41.1121447 279.190186,40.5522461 C278.567298,39.9923475 277.888431,39.4639511 277.153564,38.967041 C276.418697,38.470131 275.645349,37.9942243 274.833496,37.5393066 C274.021643,37.084389 273.195805,36.6259789 272.355957,36.1640625 C271.474117,35.6881487 270.595789,35.1982447 269.720947,34.6943359 C268.846106,34.1904272 268.00977,33.6515328 267.211914,33.0776367 C266.414059,32.5037406 265.672204,31.884362 264.986328,31.2194824 C264.300452,30.5546028 263.709068,29.8162475 263.212158,29.0043945 C262.715248,28.1925415 262.323325,27.2967171 262.036377,26.3168945 C261.749429,25.3370719 261.605957,24.2522846 261.605957,23.0625 C261.605957,21.5787686 261.79492,20.1965396 262.172852,18.9157715 C262.550783,17.6350034 263.07918,16.4592339 263.758057,15.3884277 C264.436934,14.3176216 265.248775,13.3623089 266.193604,12.5224609 C267.138432,11.682613 268.174229,10.9722523 269.301025,10.3913574 C270.427821,9.81046259 271.631585,9.36954903 272.912354,9.06860352 C274.193122,8.767658 275.505364,8.6171875 276.849121,8.6171875 C277.46501,8.6171875 278.122881,8.65567995 278.822754,8.73266602 C279.522627,8.80965208 280.22249,8.92512944 280.922363,9.07910156 C281.622237,9.23307369 282.290606,9.41853733 282.92749,9.63549805 C283.564375,9.85245877 284.127764,10.1009101 284.617676,10.3808594 C285.107587,10.6608087 285.49951,10.9687483 285.793457,11.3046875 C286.087404,11.6406267 286.234375,11.9975567 286.234375,12.3754883 C286.234375,12.7814148 286.227376,13.2888153 286.213379,13.8977051 C286.199381,14.5065948 286.181885,15.199459 286.160889,15.9763184 C286.139892,16.7531777 286.108399,17.6000117 286.066406,18.5168457 C286.024414,19.4336797 285.975423,20.4029897 285.919434,21.4248047 L283.798828,21.3198242 C283.840821,20.8159154 283.861816,20.3330101 283.861816,19.8710938 C283.861816,18.4853446 283.655357,17.2640841 283.242432,16.2072754 C282.829506,15.1504667 282.24862,14.2686396 281.499756,13.5617676 C280.750891,12.8548956 279.848068,12.3229998 278.79126,11.9660645 C277.734451,11.6091291 276.562181,11.4306641 275.274414,11.4306641 C273.986647,11.4306641 272.786383,11.6441222 271.673584,12.0710449 C270.560785,12.4979676 269.598474,13.092851 268.786621,13.8557129 C267.974768,14.6185748 267.337893,15.5248971 266.875977,16.574707 C266.41406,17.624517 266.183105,18.7792906 266.183105,20.0390625 C266.183105,21.0608775 266.316079,21.9881957 266.582031,22.8210449 C266.847983,23.6538941 267.215411,24.4202439 267.684326,25.1201172 C268.153241,25.8199905 268.709632,26.4568656 269.353516,27.0307617 C269.997399,27.6046578 270.697262,28.1470515 271.453125,28.657959 C272.208988,29.1688665 273.006832,29.6552711 273.84668,30.1171875 C274.686528,30.5791039 275.533362,31.0410133 276.387207,31.5029297 C277.269047,31.9648461 278.147375,32.4407528 279.022217,32.9306641 C279.897058,33.4205754 280.733394,33.9419731 281.53125,34.494873 C282.329106,35.0477729 283.067461,35.6496549 283.746338,36.3005371 C284.425215,36.9514193 285.0131,37.6722779 285.51001,38.4631348 C286.00692,39.2539916 286.398843,40.1253208 286.685791,41.0771484 C286.972739,42.0289761 287.116211,43.0857689 287.116211,44.2475586 C287.116211,46.1652114 286.853762,47.865878 286.328857,49.3496094 C285.803952,50.8333408 285.10059,52.1245876 284.21875,53.2233887 C283.33691,54.3221897 282.325608,55.2495079 281.184814,56.0053711 C280.044021,56.7612342 278.857754,57.3701149 277.625977,57.8320312 C276.3942,58.2939476 275.162441,58.6263824 273.930664,58.8293457 C272.698887,59.032309 271.558111,59.1337891 270.508301,59.1337891 C269.122552,59.1337891 267.820807,59.0393076 266.603027,58.8503418 C265.385248,58.661376 264.317957,58.4129247 263.401123,58.1049805 C262.484289,57.7970362 261.76343,57.4436055 261.238525,57.0446777 C260.71362,56.64575 260.451172,56.2363302 260.451172,55.8164062 C260.451172,54.878576 260.482666,53.5348395 260.545654,51.7851562 C260.608643,50.035473 260.710123,47.9568805 260.850098,45.5493164 L262.970703,45.6542969 Z M303.199219,44.4785156 C304.878915,43.918617 306.411614,43.2817419 307.797363,42.5678711 C309.183112,41.8540003 310.376378,41.0911499 311.377197,40.2792969 C312.378016,39.4674439 313.151364,38.6136113 313.697266,37.7177734 C314.243167,36.8219356 314.516113,35.9051154 314.516113,34.9672852 C314.516113,34.5753561 314.442628,34.2149268 314.295654,33.8859863 C314.148681,33.5570459 313.952719,33.2771008 313.707764,33.0461426 C313.462808,32.8151844 313.175864,32.6367194 312.846924,32.5107422 C312.517983,32.384765 312.164553,32.3217773 311.786621,32.3217773 C310.904781,32.3217773 309.99146,32.5947238 309.046631,33.140625 C308.101802,33.6865262 307.163986,34.4773711 306.233154,35.5131836 C305.302323,36.5489961 304.396001,37.8157477 303.51416,39.3134766 C302.63232,40.8112054 301.81348,42.511872 301.057617,44.4155273 C300.301754,46.3191827 299.622887,48.4117724 299.020996,50.6933594 C298.419105,52.9749463 297.9362,55.4104688 297.572266,58 L293.331055,58.5458984 L292.995117,58.5249023 C293.079102,56.8732014 293.173583,55.0500588 293.278564,53.0554199 C293.383545,51.060781 293.495523,48.9436961 293.614502,46.7041016 C293.73348,44.464507 293.859456,42.1304646 293.992432,39.7019043 C294.125408,37.273344 294.258381,34.799329 294.391357,32.2797852 C294.524333,29.7602413 294.660807,27.2197394 294.800781,24.6582031 C294.940756,22.0966669 295.077229,19.5666629 295.210205,17.0681152 C295.343181,14.5695676 295.472656,12.1235471 295.598633,9.72998047 C295.72461,7.33641381 295.843587,5.04786248 295.955566,2.86425781 C295.969564,2.52831863 296.067545,2.23787557 296.249512,1.99291992 C296.431479,1.74796427 296.665933,1.55200269 296.952881,1.4050293 C297.239829,1.25805591 297.565265,1.14957717 297.929199,1.07958984 C298.293133,1.00960251 298.671059,0.974609375 299.062988,0.974609375 C299.902836,0.974609375 300.784663,1.19856547 301.708496,1.64648438 C301.386554,4.51596487 301.099611,7.14744897 300.847656,9.54101562 C300.595702,11.9345823 300.368246,14.1566466 300.165283,16.2072754 C299.96232,18.2579041 299.776856,20.1755282 299.608887,21.9602051 C299.440917,23.744882 299.290447,25.4525472 299.157471,27.083252 C299.024495,28.7139567 298.898519,30.3096439 298.779541,31.8703613 C298.660563,33.4310788 298.545085,35.016268 298.433105,36.6259766 C298.321126,38.2356851 298.205648,39.9013586 298.08667,41.6230469 C297.967691,43.3447352 297.838217,45.1923729 297.698242,47.1660156 L297.824219,47.1870117 C298.328128,45.5213133 298.923011,43.8766357 299.608887,42.2529297 C300.294763,40.6292237 301.050614,39.0860262 301.876465,37.623291 C302.702315,36.1605558 303.591141,34.8098206 304.542969,33.5710449 C305.494796,32.3322692 306.488602,31.2649784 307.524414,30.3691406 C308.560227,29.4733028 309.631017,28.7699407 310.736816,28.2590332 C311.842616,27.7481257 312.962397,27.4926758 314.096191,27.4926758 C314.810062,27.4926758 315.467933,27.6081531 316.069824,27.8391113 C316.671715,28.0700695 317.193113,28.399005 317.634033,28.8259277 C318.074953,29.2528504 318.417886,29.7672496 318.662842,30.3691406 C318.907797,30.9710317 319.030273,31.6428999 319.030273,32.3847656 C319.030273,33.5465553 318.778323,34.6733344 318.274414,35.7651367 C317.770505,36.8569391 317.056645,37.9067332 316.132812,38.9145508 C315.20898,39.9223683 314.099697,40.877681 312.804932,41.7805176 C311.510166,42.6833541 310.071948,43.5196902 308.490234,44.2895508 C309.428065,46.0112391 310.271399,47.4844503 311.020264,48.7092285 C311.769128,49.9340068 312.447995,50.9628051 313.056885,51.7956543 C313.665775,52.6285035 314.215167,53.2898739 314.705078,53.7797852 C315.194989,54.2696965 315.646401,54.6406237 316.059326,54.8925781 C316.472251,55.1445325 316.860675,55.3090003 317.224609,55.3859863 C317.588543,55.4629724 317.952472,55.5014648 318.316406,55.5014648 C319.044274,55.5014648 319.800126,55.3894868 320.583984,55.1655273 C321.367842,54.9415679 322.158687,54.6476255 322.956543,54.2836914 L323.355469,55.3754883 C322.85156,55.7814148 322.214685,56.1943338 321.444824,56.6142578 C320.674964,57.0341818 319.859623,57.4191063 318.998779,57.769043 C318.137935,58.1189796 317.284103,58.402424 316.437256,58.6193848 C315.590409,58.8363455 314.845055,58.9448242 314.201172,58.9448242 C313.445309,58.9448242 312.692956,58.6683784 311.944092,58.1154785 C311.195227,57.5625786 310.390385,56.7052467 309.529541,55.543457 C308.668697,54.3816674 307.720383,52.9084562 306.68457,51.1237793 C305.648758,49.3391024 304.458991,47.2080202 303.115234,44.7304688 L303.199219,44.4785156 Z M334.231445,58.1889648 C333.867511,56.8592056 333.479087,55.4664786 333.066162,54.0107422 C332.653237,52.5550057 332.233319,51.0922925 331.806396,49.6225586 C331.379474,48.1528247 330.952557,46.7041087 330.525635,45.2763672 C330.098712,43.8486257 329.685793,42.4908919 329.286865,41.203125 C328.887937,39.9153581 328.510012,38.7220921 328.153076,37.623291 C327.796141,36.5244899 327.477703,35.5761759 327.197754,34.7783203 C326.903807,33.9524698 326.620363,33.2771022 326.347412,32.7521973 C326.074462,32.2272923 325.791017,31.8178726 325.49707,31.5239258 C325.203124,31.229979 324.895184,31.0270188 324.573242,30.9150391 C324.2513,30.8030593 323.89437,30.7470703 323.502441,30.7470703 C323.054523,30.7470703 322.575116,30.7960607 322.064209,30.894043 C321.553301,30.9920252 320.940922,31.1249992 320.227051,31.2929688 L319.912109,29.78125 C320.751957,29.4733058 321.574296,29.1933606 322.37915,28.9414062 C323.184005,28.6894519 323.929359,28.4724944 324.615234,28.2905273 C325.30111,28.1085603 325.909991,27.9685877 326.441895,27.8706055 C326.973798,27.7726232 327.393716,27.7236328 327.70166,27.7236328 C328.065594,27.7236328 328.412026,27.7866205 328.740967,27.9125977 C329.069907,28.0385748 329.391844,28.2590316 329.706787,28.5739746 C330.02173,28.8889176 330.32617,29.3228325 330.620117,29.8757324 C330.914064,30.4286323 331.208006,31.1249958 331.501953,31.9648438 C331.697918,32.4967475 331.932372,33.1791137 332.205322,34.0119629 C332.478273,34.8448121 332.775715,35.7896269 333.097656,36.8464355 C333.419598,37.9032442 333.762531,39.0545185 334.126465,40.300293 C334.490399,41.5460674 334.857827,42.8443129 335.22876,44.1950684 C335.599693,45.5458238 335.967121,46.9280528 336.331055,48.3417969 C336.694989,49.7555409 337.04492,51.1552665 337.380859,52.5410156 C338.080733,50.7073476 338.812089,48.7932229 339.574951,46.798584 C340.337813,44.8039451 341.114661,42.7988382 341.905518,40.7832031 C342.696374,38.767568 343.48372,36.7694598 344.267578,34.7888184 C345.051436,32.8081769 345.807288,30.9150481 346.535156,29.109375 C346.661133,28.8014308 346.8326,28.5494801 347.049561,28.3535156 C347.266521,28.1575511 347.507974,28.000082 347.773926,27.8811035 C348.039878,27.7621251 348.316323,27.6781415 348.603271,27.6291504 C348.89022,27.5801593 349.173664,27.5556641 349.453613,27.5556641 C349.91553,27.5556641 350.363442,27.622151 350.797363,27.755127 C351.231285,27.8881029 351.644204,28.0525706 352.036133,28.2485352 C351.406247,29.2703502 350.751875,30.4076272 350.072998,31.6604004 C349.394121,32.9131736 348.697757,34.2499115 347.983887,35.6706543 C347.270016,37.0913971 346.552657,38.5716069 345.831787,40.1113281 C345.110918,41.6510494 344.393558,43.2222413 343.679688,44.8249512 C342.965817,46.427661 342.262455,48.0373454 341.56958,49.6540527 C340.876706,51.27076 340.208337,52.8629479 339.564453,54.4306641 C338.906572,56.0123777 338.283694,57.576571 337.695801,59.123291 C337.107907,60.670011 336.53402,62.1677174 335.974121,63.6164551 C335.414222,65.0651928 334.86483,66.4579197 334.325928,67.7946777 C333.787025,69.1314357 333.237633,70.3806908 332.677734,71.5424805 C332.145831,72.6202853 331.578942,73.6245884 330.977051,74.5554199 C330.37516,75.4862514 329.71029,76.2910936 328.982422,76.9699707 C328.254554,77.6488478 327.453211,78.1842428 326.578369,78.5761719 C325.703528,78.9681009 324.734218,79.1640625 323.67041,79.1640625 C323.012529,79.1640625 322.417646,79.0765797 321.885742,78.9016113 C321.353838,78.726643 320.902427,78.4956883 320.531494,78.2087402 C320.160561,77.9217922 319.877117,77.5893574 319.681152,77.2114258 C319.485188,76.8334942 319.387207,76.4345724 319.387207,76.0146484 C319.387207,75.5527321 319.52368,75.0733261 319.796631,74.576416 C320.069581,74.079506 320.430011,73.7050794 320.87793,73.453125 C321.465823,73.8170591 322.060707,74.0760083 322.662598,74.2299805 C323.264489,74.3839526 323.803383,74.4609375 324.279297,74.4609375 C325.427089,74.4609375 326.445389,74.1494986 327.334229,73.5266113 C328.223068,72.9037241 329.059404,71.9694073 329.843262,70.7236328 C330.62712,69.4778584 331.414465,67.9171643 332.205322,66.0415039 C332.996179,64.1658435 333.874507,61.9682743 334.840332,59.4487305 L335.260254,58.3359375 L334.231445,58.1889648 Z" id="a-Grab-of-Sky" fill="#B0C4DE"></path>
    </g>
</svg>